<?xml version="1.0" encoding="UTF-8" standalone="no"?>
<!-- Created with Inkscape (http://www.inkscape.org/) -->

<svg
   width="128.13937mm"
   height="171.36545mm"
   viewBox="0 0 128.13937 171.36545"
   version="1.1"
   id="svg1"
   xmlns="http://www.w3.org/2000/svg"
   xmlns:svg="http://www.w3.org/2000/svg">
  <defs
     id="defs1" />
  <g
     id="layer1"
     transform="translate(-20.19159,-102.63351)">
    <polygon
       class="st1"
       points="732.8,726.5 660.8,980 393.8,980 553,632.8 485,262.3 615,0 732.8,0 "
       id="polygon2"
       style="fill:#c2c2c2"
       transform="matrix(0.1748627,0,0,0.1748627,20.19159,102.63351)" />
    <polygon
       class="st2"
       points="661.7,225.5 732.8,182.9 732.8,0 615,0 566.6,97.7 "
       id="polygon3"
       style="fill:#808080"
       transform="matrix(0.1748627,0,0,0.1748627,20.19159,102.63351)" />
    <g
       id="g10"
       transform="matrix(0.1748627,0,0,0.1748627,20.19159,102.63351)">
      <path
         class="st2"
         d="m 589.4,679.9 v 0 c 4.2,-2.2 9.1,-2.3 13.4,-0.4 l 21.6,9.5 c 3.6,1.6 7.6,1.7 11.3,0.5 l 5.4,-1.9 c 12.5,-4.4 24.4,8 19.5,20.3 l -8.3,21.1 c -3.7,9.4 -15.2,12.8 -23.4,6.9 l -41.4,-29.7 c -9.4,-6.7 -8.4,-21 1.9,-26.3 z"
         id="path3"
         style="fill:#808080" />
      <path
         class="st2"
         d="m 596.7,216.8 v 0 c 3.2,-0.2 6.2,1.1 8.4,3.5 l 10.7,12 c 1.8,2 4.2,3.2 6.9,3.5 l 3.8,0.4 c 8.9,0.8 12.8,11.8 6.3,18 l -11.1,10.7 c -4.9,4.7 -13,3.6 -16.4,-2.3 l -17.2,-30 c -3.9,-6.9 0.8,-15.4 8.6,-15.8 z"
         id="path4"
         style="fill:#808080" />
      <path
         class="st2"
         d="m 596.3,446.4 v 0 c -0.4,3.2 -2.1,6 -4.8,7.7 l -13.5,8.6 c -2.2,1.4 -3.9,3.7 -4.5,6.2 l -1,3.7 c -2.3,8.7 -13.7,10.7 -18.8,3.3 l -8.8,-12.6 c -3.9,-5.6 -1.5,-13.4 4.9,-15.8 l 32.3,-12.1 c 7.4,-2.8 15,3.2 14.2,11 z"
         id="path5"
         style="fill:#808080" />
      <path
         class="st2"
         d="m 465,915 v 0 c 1.1,-4.6 4.1,-8.4 8.4,-10.4 l 21.3,-10.2 c 3.5,-1.7 6.3,-4.7 7.7,-8.3 l 2.1,-5.3 c 4.8,-12.3 21.9,-13.3 28.1,-1.6 l 10.6,20 c 4.7,8.9 -0.2,19.9 -10,22.3 l -49.4,12.1 C 472.5,936.3 462.4,926.2 465,915 Z"
         id="path6"
         style="fill:#808080" />
      <path
         class="st2"
         d="M 665.6,466.2 650.9,490 c -6.5,10.6 -0.7,24.4 11.4,27.2 l 30.8,7.1 c 15.1,3.5 27.3,-12.4 20.1,-26.1 L 697,467.4 c -6.5,-12.6 -24,-13.2 -31.4,-1.2 z"
         id="path7"
         style="fill:#808080" />
      <path
         class="st2"
         d="m 538.4,335 37.2,18.3 c 1.8,0.9 3.9,1.3 5.9,1.1 l 56.5,-5.1 c 8.1,-0.7 12.7,-9.7 8.7,-16.7 v 0 c -1.4,-2.5 -3.8,-4.3 -6.5,-5.1 l -83.8,-24.7 c -4.2,-1.2 -8.8,0.1 -11.6,3.4 l -9.9,11.6 c -4.8,5.4 -3,13.9 3.5,17.2 z"
         id="path8"
         style="fill:#808080" />
      <path
         class="st2"
         d="m 636.9,852.1 19,-12.6 c 0.9,-0.6 1.7,-1.5 2.2,-2.5 l 13.2,-28.2 c 1.9,-4.1 -1,-8.7 -5.5,-8.7 v 0 c -1.6,0 -3.1,0.6 -4.2,1.7 l -34.9,32.9 c -1.8,1.7 -2.4,4.2 -1.6,6.5 l 2.7,7.9 c 1.2,3.7 5.7,5.2 9.1,3 z"
         id="path9"
         style="fill:#808080" />
      <path
         class="st2"
         d="m 629.8,86.4 13.8,-10.2 c 6.4,-4.8 15,-5.5 22.1,-1.8 l 8.3,4.3 c 5.7,2.9 9.7,8.3 10.9,14.6 l 6.7,34.6 c 0.3,1.3 0.6,2.6 1.1,3.8 l 9,22.6 c 4.5,11.2 -1.4,23.8 -12.8,27.6 v 0 c -8.9,3 -18.6,-0.3 -23.9,-8.1 l -40,-58.9 c -6.3,-9.3 -4.2,-21.9 4.8,-28.5 z"
         id="path10"
         style="fill:#808080" />
    </g>
    <polygon
       class="st3"
       points="393.8,980 297.8,980 232.6,0 615,0 485,262.3 553,632.8 "
       id="polygon10"
       style="fill:#f7f7f7"
       transform="matrix(0.1748627,0,0,0.1748627,20.19159,102.63351)" />
    <line
       class="st4"
       x1="71.915977"
       y1="113.75478"
       x2="86.167282"
       y2="113.75478"
       id="line10"
       style="fill:#dbdbdb;stroke-width:0.174863" />
    <path
       class="st4"
       d="m 82.687519,193.38725 5.280854,6.64478 c 0.629505,0.78689 0.06995,1.94098 -0.926773,1.94098 l -6.854618,0.0175 c -0.769396,0 -1.346442,-0.71694 -1.17158,-1.46885 l 1.573765,-6.67976 c 0.227321,-0.96174 1.486333,-1.24152 2.098352,-0.45464 z"
       id="path11"
       style="fill:#dbdbdb;stroke-width:0.174863" />
    <circle
       class="st4"
       cx="105.48962"
       cy="197.93369"
       r="5.7704692"
       id="circle11"
       style="fill:#dbdbdb;stroke-width:0.174863" />
    <circle
       class="st4"
       cx="110.70052"
       cy="114.19193"
       r="4.7562656"
       id="circle12"
       style="fill:#dbdbdb;stroke-width:0.174863" />
    <path
       class="st4"
       d="m 73.926898,170.69007 0.594533,3.37485 c 0.209835,1.18907 1.363929,1.95847 2.535509,1.71366 l 15.457863,-3.37485 c 1.224039,-0.2623 1.940976,-1.53879 1.556278,-2.72786 v 0 C 93.7913,168.80156 92.969446,168.20702 92.06016,168.20702 H 76.007764 c -1.31147,0 -2.308188,1.18907 -2.080866,2.48305 z"
       id="path12"
       style="fill:#dbdbdb;stroke-width:0.174863" />
    <line
       class="st4"
       x1="104.45792"
       y1="229.8811"
       x2="96.501671"
       y2="225.31717"
       id="line12"
       style="fill:#dbdbdb;stroke-width:0.174863" />
    <path
       class="st4"
       d="m 90.311533,239.16631 c -0.03497,-0.0525 -4.40654,1.27649 -4.40654,1.36393"
       id="path13"
       style="fill:#dbdbdb;stroke-width:0.174863" />
    <path
       class="st4"
       d="m 95.487469,141.69784 c 0.104917,-1.76612 -1.64371,-1.04918 -2.727858,0.34972 l -0.489616,-1.57376"
       id="path14"
       style="fill:#dbdbdb;stroke-width:0.174863" />
    <polygon
       class="st4"
       points="487.5,409.6 264.4,477 246.9,214.3 "
       id="polygon14"
       style="fill:#dbdbdb"
       transform="matrix(0.1748627,0,0,0.1748627,20.19159,102.63351)" />
    <polygon
       class="st5"
       points="297.8,980 0,980 0,0 232.6,0 "
       id="polygon15"
       style="fill:#e7e7e7;fill-opacity:1"
       transform="matrix(0.1748627,0,0,0.1748627,20.19159,102.63351)" />
    <path
       class="st6"
       d="m 32.292089,129.68477 c -2.308188,1.10163 -3.742062,0.68196 -4.284136,-0.45464 -0.542075,-1.13661 0.01749,-2.53551 2.325674,-3.63715 2.308187,-1.10163 6.365002,-1.94097 6.907076,-0.80437 0.542075,1.11913 -2.640427,3.77704 -4.948614,4.89616 z"
       id="path15"
       style="fill:#4a4a4a;stroke-width:0.174863" />
    <path
       class="st6"
       d="m 50.460323,121.64109 c 0.75191,2.44807 2.045894,3.21747 3.252447,2.85026 1.206552,-0.36721 1.853544,-1.73114 1.101635,-4.17922 -0.75191,-2.44808 -2.902721,-5.99779 -4.109274,-5.63058 -1.189066,0.36721 -0.996717,4.51146 -0.244808,6.95954 z"
       id="path16"
       style="fill:#4a4a4a;stroke-width:0.174863" />
    <path
       class="st6"
       d="m 46.403509,230.07345 c 1.713654,0.82185 2.797803,0.5071 3.199987,-0.34973 0.402184,-0.83934 -0.01749,-1.88852 -1.731141,-2.71037 -1.713654,-0.82186 -4.756265,-1.45136 -5.158449,-0.59453 -0.402184,0.83934 1.975948,2.83277 3.689603,3.65463 z"
       id="path17"
       style="fill:#4a4a4a;stroke-width:0.174863" />
    <path
       class="st6"
       d="m 35.492076,191.00912 c 1.713655,0.82185 2.797803,0.5071 3.199988,-0.34973 0.402184,-0.83934 -0.01749,-1.88851 -1.731141,-2.71037 -1.713655,-0.82185 -4.756266,-1.45136 -5.15845,-0.59453 -0.402184,0.85683 1.958463,2.81529 3.689603,3.65463 z"
       id="path18"
       style="fill:#4a4a4a;stroke-width:0.174863" />
    <path
       class="st6"
       d="m 32.729246,206.16971 -0.437157,3.18251 c -0.08743,0.66447 -0.734423,1.10163 -1.398902,0.94425 l -2.692885,-0.64699 c -0.909286,-0.22732 -1.17158,-1.3989 -0.437157,-1.99343 l 3.147529,-2.53551 c 0.786882,-0.62951 1.958462,0.035 1.818572,1.04917 z"
       id="path19"
       style="fill:#4a4a4a;stroke-width:0.174863" />
    <path
       class="st6"
       d="m 51.561958,253.83729 4.424027,1.74862 c 0.926772,0.36722 1.328956,1.45136 0.874313,2.32568 l -1.906003,3.67211 c -0.646992,1.24153 -2.430592,1.20656 -3.007639,-0.0699 l -2.535509,-5.42074 c -0.629506,-1.36393 0.734424,-2.81529 2.150811,-2.25573 z"
       id="path20"
       style="fill:#4a4a4a;stroke-width:0.174863" />
    <path
       class="st6"
       d="m 35.299727,170.06057 c 0,-0.68197 -0.489615,-1.25901 -1.136607,-1.3989 -0.13989,-0.647 -0.716937,-1.13661 -1.398902,-1.13661 -0.734423,0 -1.346443,0.55956 -1.433874,1.2765 0,0 0,0 -0.01749,0 -0.804369,0 -1.433874,0.64699 -1.433874,1.43387 0,0.61202 0.367211,1.11912 0.909286,1.32896 0.13989,0.66447 0.716937,1.15409 1.416387,1.15409 0.192349,0 0.384698,-0.035 0.559561,-0.1224 0.262294,0.31475 0.664478,0.5071 1.101635,0.5071 0.804369,0 1.433874,-0.64699 1.433874,-1.43388 0,-0.29726 -0.08743,-0.57704 -0.244807,-0.80436 0.13989,-0.22733 0.244807,-0.50711 0.244807,-0.80437 z"
       id="path21"
       style="fill:#4a4a4a;stroke-width:0.174863" />
    <path
       class="st6"
       d="m 53.71277,219.5642 c 0.681964,0.13989 1.328956,-0.22732 1.59125,-0.83934 0.664478,-0.0175 1.241525,-0.48962 1.381415,-1.1541 0.139891,-0.71693 -0.27978,-1.43387 -0.961744,-1.64371 0,0 0,0 0,-0.0175 0.157376,-0.78689 -0.349726,-1.53879 -1.136608,-1.69617 -0.594533,-0.12241 -1.17158,0.13989 -1.486333,0.6295 -0.664478,0 -1.276498,0.47213 -1.398901,1.1541 -0.03497,0.19235 -0.03497,0.3847 0,0.57705 -0.349726,0.19234 -0.629506,0.54207 -0.716938,0.97923 -0.157376,0.78688 0.349726,1.53879 1.136608,1.69616 0.297267,0.0525 0.577047,0.0175 0.839341,-0.0874 0.209835,0.19235 0.454643,0.34973 0.75191,0.40219 z"
       id="path22"
       style="fill:#4a4a4a;stroke-width:0.174863" />
    <path
       class="st6"
       d="m 48.746669,197.5315 4.82621,0.76939 c 0.874314,0.13989 1.573765,-0.69945 1.311471,-1.53879 l -0.996718,-3.04261 c -0.314753,-0.99672 -1.678682,-1.10163 -2.168297,-0.19235 l -0.157377,0.27978 c -0.13989,0.2623 -0.367211,0.45464 -0.629505,0.55956 l -2.413106,0.8918 c -1.154093,0.41967 -0.979231,2.08087 0.227322,2.27322 z"
       id="path23"
       style="fill:#4a4a4a;stroke-width:0.174863" />
    <path
       class="st6"
       d="m 32.397006,149.3918 6.347516,2.93769 c 1.136608,0.52459 2.448078,-0.33224 2.395619,-1.59125 l -0.174862,-4.56392 c -0.05246,-1.48633 -1.871031,-2.18578 -2.902721,-1.10163 l -0.314753,0.33224 c -0.27978,0.29726 -0.681964,0.48961 -1.084149,0.5071 l -3.672116,0.27978 c -1.748627,0.10492 -2.168298,2.46556 -0.594534,3.19999 z"
       id="path24"
       style="fill:#4a4a4a;stroke-width:0.174863" />
    <path
       class="st6"
       d="m 28.567513,257.94656 2.273215,4.3366 c 0.402185,0.78688 1.50382,0.85682 2.010921,0.13989 l 1.853545,-2.60546 c 0.594533,-0.85683 -0.104918,-2.01092 -1.136607,-1.85354 l -0.314753,0.0525 c -0.279781,0.035 -0.577047,-0.0175 -0.821855,-0.17487 l -2.150811,-1.41639 c -1.03169,-0.68196 -2.273215,0.43716 -1.713655,1.52131 z"
       id="path25"
       style="fill:#4a4a4a;stroke-width:0.174863" />
    <path
       class="st6"
       d="m 25.157691,237.20784 2.640426,-0.17486 c 0.559561,-0.035 1.014204,0.41967 0.996718,0.96175 l -0.06995,2.30818 c -0.01749,0.7694 -0.926773,1.18907 -1.538792,0.69945 l -2.570482,-2.11583 c -0.646992,-0.55956 -0.314753,-1.62623 0.542075,-1.67869 z"
       id="path26"
       style="fill:#4a4a4a;stroke-width:0.174863" />
    <path
       class="st7"
       d="m 31.575152,128.79297 c -2.308188,1.10163 -3.742062,0.68196 -4.284136,-0.45464 -0.542075,-1.13661 0.01749,-2.53551 2.325674,-3.63715 2.308187,-1.10163 6.365002,-1.94097 6.907076,-0.80437 0.542075,1.11913 -2.640427,3.77704 -4.948614,4.89616 z"
       id="path27"
       style="fill:#c6c6c6;stroke-width:0.174863" />
    <circle
       class="st8"
       cx="30.018873"
       cy="127.07932"
       r="1.0142037"
       id="circle27"
       style="fill:#222222;stroke-width:0.174863" />
    <path
       class="st7"
       d="m 49.743386,120.74929 c 0.75191,2.44807 2.045894,3.21747 3.252447,2.85026 1.206552,-0.36721 1.853544,-1.73114 1.101635,-4.17922 -0.75191,-2.44808 -2.902721,-5.99779 -4.109274,-5.63058 -1.206553,0.36721 -0.996717,4.51146 -0.244808,6.95954 z"
       id="path28"
       style="fill:color;stroke-width:0.174863" />
    <circle
       class="st8"
       cx="52.051575"
       cy="120.74928"
       r="1.0142037"
       id="circle28"
       style="fill:#222222;stroke-width:0.174863" />
    <path
       class="st7"
       d="m 45.686572,229.18165 c 1.713654,0.82185 2.797803,0.5071 3.199987,-0.34973 0.402184,-0.83934 -0.01749,-1.88852 -1.731141,-2.71037 -1.713654,-0.82186 -4.756265,-1.45136 -5.158449,-0.59453 -0.402185,0.83934 1.975948,2.83277 3.689603,3.65463 z"
       id="path29"
       style="fill:color;stroke-width:0.174863" />
    <circle
       class="st8"
       cx="46.85815"
       cy="227.92264"
       r="0.75190961"
       id="circle29"
       style="fill:#222222;stroke-width:0.174863" />
    <path
       class="st7"
       d="m 34.775139,190.09983 c 1.713655,0.82186 2.797803,0.5071 3.199988,-0.34972 0.402184,-0.83934 -0.01749,-1.88852 -1.731141,-2.71037 -1.713655,-0.82186 -4.756266,-1.45137 -5.15845,-0.59454 -0.402184,0.85683 1.958462,2.83278 3.689603,3.65463 z"
       id="path30"
       style="fill:color;stroke-width:0.174863" />
    <circle
       class="st8"
       cx="35.94672"
       cy="188.84082"
       r="0.75190961"
       id="circle30"
       style="fill:#222222;stroke-width:0.174863" />
    <path
       class="st9"
       d="m 32.012309,205.27791 -0.437157,3.18251 c -0.08743,0.66447 -0.734424,1.10163 -1.398902,0.94425 l -2.710372,-0.66447 c -0.909286,-0.22733 -1.17158,-1.39891 -0.437156,-1.99344 l 3.147528,-2.53551 c 0.804369,-0.61202 1.975949,0.0525 1.836059,1.06666 z"
       id="path31"
       style="fill:#b4b4b4;stroke-width:0.174863" />
    <circle
       class="st10"
       cx="30.123791"
       cy="207.69102"
       r="0.82185465"
       id="circle31"
       style="fill:#6d6d6d;stroke-width:0.174863" />
    <path
       class="st9"
       d="m 50.845021,252.94549 4.424027,1.74862 c 0.926772,0.36722 1.328956,1.45136 0.874313,2.32568 l -1.906003,3.67211 c -0.646992,1.24153 -2.430592,1.20656 -3.007639,-0.0699 l -2.535509,-5.42074 c -0.629506,-1.36393 0.734423,-2.81529 2.150811,-2.25573 z"
       id="path32"
       style="fill:#b4b4b4;stroke-width:0.174863" />
    <circle
       class="st10"
       cx="53.62534"
       cy="256.5127"
       r="1.2065526"
       id="circle32"
       style="fill:#6d6d6d;stroke-width:0.174863" />
    <path
       class="st11"
       d="m 34.565304,169.16877 c 0,-0.68197 -0.489616,-1.25901 -1.136608,-1.3989 -0.13989,-0.647 -0.716937,-1.13661 -1.398901,-1.13661 -0.734424,0 -1.346443,0.55956 -1.433874,1.2765 0,0 0,0 -0.01749,0 -0.804368,0 -1.433874,0.64699 -1.433874,1.43387 0,0.61202 0.367212,1.11912 0.909286,1.32896 0.13989,0.66447 0.716937,1.15409 1.416388,1.15409 0.192349,0 0.384698,-0.035 0.559561,-0.1224 0.262294,0.31475 0.664478,0.5071 1.101635,0.5071 0.804368,0 1.433874,-0.64699 1.433874,-1.43388 0,-0.29726 -0.08743,-0.57704 -0.244808,-0.80436 0.157377,-0.22733 0.244808,-0.50711 0.244808,-0.80437 z"
       id="path33"
       style="fill:#bfbfbf;stroke-width:0.174863" />
    <circle
       class="st12"
       cx="32.397007"
       cy="169.86823"
       r="0.96174484"
       id="circle33"
       style="fill:#404040;stroke-width:0.174863" />
    <path
       class="st11"
       d="m 52.995833,218.6724 c 0.681964,0.13989 1.328956,-0.22732 1.59125,-0.83934 0.664478,-0.0175 1.241525,-0.48962 1.381415,-1.1541 0.139891,-0.71693 -0.27978,-1.43387 -0.961744,-1.64371 0,0 0,0 0,-0.0175 0.157376,-0.78688 -0.349726,-1.53879 -1.136608,-1.69617 -0.594533,-0.1224 -1.17158,0.13989 -1.486333,0.6295 -0.664478,0 -1.276498,0.47213 -1.398902,1.1541 -0.03497,0.19235 -0.03497,0.3847 0,0.57705 -0.349725,0.19234 -0.629505,0.54207 -0.716937,0.97923 -0.157376,0.78688 0.349726,1.53879 1.136608,1.69616 0.297267,0.0525 0.577047,0.0175 0.839341,-0.0874 0.209835,0.19235 0.454643,0.33224 0.75191,0.40219 z"
       id="path34"
       style="fill:#bfbfbf;stroke-width:0.174863" />
    <circle
       class="st12"
       cx="52.73354"
       cy="216.3817"
       r="0.96174484"
       id="circle34"
       style="fill:#404040;stroke-width:0.174863" />
    <path
       class="st13"
       d="m 48.012246,196.6397 4.82621,0.76939 c 0.874314,0.13989 1.573764,-0.69945 1.31147,-1.53879 l -0.996717,-3.04261 c -0.314753,-0.99672 -1.678682,-1.10163 -2.168298,-0.19235 l -0.157376,0.27978 c -0.13989,0.2623 -0.367212,0.45465 -0.629506,0.55956 l -2.413105,0.8918 c -1.136607,0.40219 -0.961745,2.08087 0.227322,2.27322 z"
       id="path35"
       style="fill:#afafaf;stroke-width:0.174863" />
    <polygon
       class="st6"
       points="144.7,272 269,547.1 242.5,148.1 "
       id="polygon35"
       style="fill:#6a6a6a;fill-opacity:1"
       transform="matrix(0.1748627,0,0,0.1748627,20.19159,102.63351)" />
    <circle
       class="st14"
       cx="52.313866"
       cy="195.88779"
       r="0.82185465"
       id="circle35"
       style="fill:#585858;stroke-width:0.174863" />
    <path
       class="st13"
       d="m 31.680069,148.5 6.347516,2.93769 c 1.136608,0.52459 2.448078,-0.33224 2.395619,-1.59125 l -0.174862,-4.56392 c -0.05246,-1.48633 -1.871031,-2.18578 -2.902721,-1.10163 l -0.314753,0.33224 c -0.27978,0.29726 -0.681965,0.48961 -1.084149,0.5071 l -3.672116,0.27978 c -1.748627,0.10492 -2.168298,2.46556 -0.594534,3.19999 z"
       id="path36"
       style="fill:#afafaf;stroke-width:0.174863" />
    <circle
       class="st14"
       cx="37.870209"
       cy="149.14699"
       r="1.1715801"
       id="circle36"
       style="fill:#585858;stroke-width:0.174863" />
    <path
       class="st13"
       d="m 27.850576,257.05476 2.273215,4.3366 c 0.402185,0.78688 1.50382,0.85682 2.010921,0.13989 l 1.853545,-2.60546 c 0.594533,-0.85683 -0.104918,-2.01092 -1.136608,-1.85354 l -0.314752,0.0525 c -0.279781,0.035 -0.577047,-0.0175 -0.821855,-0.17487 l -2.150811,-1.41639 c -1.049176,-0.68196 -2.273215,0.43716 -1.713655,1.52131 z"
       id="path37"
       style="fill:#afafaf;stroke-width:0.174863" />
    <circle
       class="st14"
       cx="30.998104"
       cy="260.06241"
       r="0.82185465"
       id="circle37"
       style="fill:#585858;stroke-width:0.174863" />
    <polygon
       class="st6"
       points="116.3,799 0,886.9 0,610.9 "
       id="polygon37"
       style="fill:#6a6a6a;fill-opacity:1"
       transform="matrix(0.1748627,0,0,0.1748627,20.19159,102.63351)" />
    <path
       class="st9"
       d="m 51.92917,148.01038 2.080866,2.46556 c 0.437157,0.50711 0.332239,1.29399 -0.227321,1.6612 l -2.308188,1.57376 c -0.769396,0.52459 -1.818572,-0.0699 -1.766113,-0.99671 l 0.227321,-4.03933 c 0.05246,-1.03169 1.328957,-1.45136 1.993435,-0.66448 z"
       id="path38"
       style="fill:color;stroke-width:0.174863" />
    <circle
       class="st10"
       cx="52.453758"
       cy="151.01802"
       r="0.82185465"
       id="circle38"
       style="fill:#6d6d6d;stroke-width:0.174863" />
    <path
       class="st9"
       d="m 24.440754,236.31604 2.640426,-0.17486 c 0.559561,-0.035 1.014204,0.41967 0.996718,0.96175 l -0.06995,2.30818 c -0.01749,0.7694 -0.926773,1.18907 -1.538792,0.69945 l -2.570482,-2.13332 c -0.646992,-0.54207 -0.314753,-1.60874 0.542075,-1.6612 z"
       id="path39"
       style="fill:#b4b4b4;stroke-width:0.174863" />
    <circle
       class="st10"
       cx="26.696482"
       cy="237.43517"
       r="0.68196458"
       id="circle39"
       style="fill:#6d6d6d;stroke-width:0.174863" />
    <polygon
       class="st6"
       points="124.4,0 0,0 0,109.4 "
       id="polygon39"
       style="fill:#6a6a6a;fill-opacity:1"
       transform="matrix(0.1748627,0,0,0.1748627,20.19159,102.63351)" />
    <path
       class="st15"
       d="m 71.426361,112.18101 h 14.268796 c 1.678682,0 2.622941,1.94098 1.573765,3.25245 l -7.134398,9.05789 c -0.804369,1.0142 -2.343161,1.0142 -3.147529,0 l -7.134398,-9.0404 c -1.049176,-1.32896 -0.104918,-3.26994 1.573764,-3.26994 z"
       id="path40"
       style="fill:color;stroke-width:0.174863" />
    <circle
       class="st16"
       cx="76.969513"
       cy="118.54601"
       r="2.1508112"
       id="circle40"
       style="fill:#636363;stroke-width:0.174863" />
    <path
       class="st15"
       d="m 82.197903,191.81349 5.280854,6.64478 c 0.629506,0.78688 0.06995,1.94098 -0.926772,1.94098 l -6.854618,0.0175 c -0.769396,0 -1.346443,-0.71694 -1.17158,-1.46884 l 1.573764,-6.67976 c 0.227322,-0.96174 1.486333,-1.24153 2.098352,-0.45464 z"
       id="path41"
       style="fill:color;stroke-width:0.174863" />
    <circle
       class="st16"
       cx="81.28862"
       cy="196.74461"
       r="1.2764977"
       id="circle41"
       style="fill:#636363;stroke-width:0.174863" />
    <circle
       class="st17"
       cx="105"
       cy="196.35992"
       r="5.7704692"
       id="circle42"
       style="fill:#e5e5e5;stroke-width:0.174863" />
    <circle
       class="st18"
       cx="106.04918"
       cy="199.33258"
       r="1.7835995"
       id="circle43"
       style="fill:#6f6f6f;stroke-width:0.174863" />
    <circle
       class="st18"
       cx="103.2164"
       cy="193.64955"
       r="1.0491762"
       id="circle44"
       style="fill:#6f6f6f;stroke-width:0.174863" />
    <circle
       class="st17"
       cx="110.21091"
       cy="112.61817"
       r="4.7562656"
       id="circle45"
       style="fill:#e5e5e5;stroke-width:0.174863" />
    <circle
       class="st18"
       cx="112.13439"
       cy="114.3668"
       r="1.4688466"
       id="circle46"
       style="fill:#6f6f6f;stroke-width:0.174863" />
    <circle
       class="st18"
       cx="107.86774"
       cy="111.34167"
       r="0.87431347"
       id="circle47"
       style="fill:#6f6f6f;stroke-width:0.174863" />
    <path
       class="st19"
       d="m 74.241651,169.92068 0.594533,3.37485 c 0.209835,1.18906 1.363929,1.95846 2.535509,1.71365 l 15.457863,-3.37485 c 1.224038,-0.26229 1.940976,-1.53879 1.556278,-2.72786 v 0 c -0.279781,-0.87431 -1.101635,-1.46884 -2.010921,-1.46884 H 76.322517 c -1.311471,0 -2.308188,1.18906 -2.080866,2.48305 z"
       id="path47"
       style="fill:#a2a2a2;stroke-width:0.174863" />
    <path
       class="st20"
       d="m 106.57376,226.03412 -0.90928,1.76611 c -0.31476,0.61202 -1.10164,0.83934 -1.69617,0.5071 l -7.956253,-4.56391 c -0.629506,-0.36722 -0.804369,-1.18907 -0.384698,-1.7836 v 0 c 0.314753,-0.43716 0.856827,-0.61202 1.363929,-0.45465 l 8.865542,2.79781 c 0.73442,0.22732 1.06666,1.04917 0.71693,1.73114 z"
       id="path48"
       style="fill:#5c5c5c;stroke-width:0.174863" />
    <path
       class="st11"
       d="m 85.922479,240.53024 v 0 c 0,0.64699 -0.262294,1.25901 -0.699451,1.69616 l -1.381415,1.38142 c -1.661196,1.66119 -0.192349,4.49397 2.115838,4.0743 l 5.403258,-0.94426 c 1.731141,-0.29727 2.552995,-2.2907 1.573764,-3.72457 l -2.62294,-3.84698 c -1.328957,-1.95847 -4.389054,-1.01421 -4.389054,1.36393 z"
       id="path49"
       style="fill:color;stroke-width:0.174863" />
    <circle
       class="st21"
       cx="90.259079"
       cy="244.25482"
       r="1.3464427"
       id="circle49"
       style="fill:#626262;stroke-width:0.174863" />
    <path
       class="st11"
       d="m 92.269995,140.49128 v 0 c -0.297267,0.3847 -0.716937,0.62951 -1.206553,0.68197 l -1.433874,0.17486 c -1.748627,0.20984 -2.168297,2.553 -0.612019,3.37485 l 3.619658,1.92349 c 1.154093,0.61202 2.552995,-0.17486 2.640426,-1.46885 l 0.209836,-3.46228 c 0.104917,-1.7836 -2.133325,-2.62294 -3.217474,-1.22404 z"
       id="path50"
       style="fill:#bfbfbf;stroke-width:0.174863" />
    <circle
       class="st21"
       cx="93.109337"
       cy="144.6705"
       r="0.99671733"
       id="circle50"
       style="fill:#626262;stroke-width:0.174863" />
    <polygon
       class="st4"
       points="474.8,803.2 296.5,960.9 297.8,980 393.8,980 "
       id="polygon50"
       style="fill:#dbdbdb"
       transform="matrix(0.1748627,0,0,0.1748627,20.19159,102.63351)" />
    <path
       class="st20"
       d="m 73.437282,169.11631 0.594533,3.37485 c 0.209836,1.18907 1.363929,1.95846 2.535509,1.71365 l 15.457863,-3.37485 c 1.224039,-0.26229 1.940976,-1.53879 1.556278,-2.72786 v 0 c -0.27978,-0.87431 -1.101635,-1.46884 -2.010921,-1.46884 H 75.518148 c -1.31147,0 -2.308187,1.18906 -2.080866,2.48305 z"
       id="path51"
       style="fill:#5c5c5c;stroke-width:0.174863" />
    <path
       class="st22"
       d="m 122.13654,219.9489 v 0 c 0.73443,-0.3847 1.59125,-0.40219 2.34316,-0.07 l 3.77704,1.6612 c 0.6295,0.27978 1.32896,0.29726 1.97595,0.0874 l 0.94426,-0.33224 c 2.18578,-0.7694 4.26665,1.3989 3.40982,3.54971 l -1.45136,3.6896 c -0.64699,1.64371 -2.65792,2.23825 -4.09179,1.20656 l -7.23932,-5.19343 c -1.6437,-1.17158 -1.45136,-3.67211 0.33224,-4.59888 z"
       id="path52"
       style="fill:#474747;stroke-width:0.174863" />
    <path
       class="st22"
       d="m 123.41304,138.96998 v 0 c 0.55956,-0.035 1.08415,0.19235 1.46885,0.61202 l 1.87103,2.09835 c 0.31475,0.34973 0.73442,0.55956 1.20655,0.61202 l 0.66448,0.07 c 1.55628,0.13989 2.23824,2.06338 1.10164,3.14752 l -1.94098,1.87103 c -0.85683,0.82186 -2.27322,0.62951 -2.86775,-0.40218 l -3.00764,-5.24588 c -0.66448,-1.20655 0.13989,-2.69289 1.50382,-2.76283 z"
       id="path53"
       style="fill:#474747;stroke-width:0.174863" />
    <path
       class="st22"
       d="m 123.3431,179.11845 v 0 c -0.07,0.55957 -0.36721,1.04918 -0.83934,1.34645 l -2.36065,1.50382 c -0.3847,0.2448 -0.68197,0.64699 -0.78688,1.08415 l -0.17487,0.64699 c -0.40218,1.5213 -2.39561,1.87103 -3.28741,0.57704 l -1.5388,-2.20327 c -0.68196,-0.97923 -0.26229,-2.34316 0.85683,-2.76283 l 5.64807,-2.11583 c 1.29398,-0.48962 2.64042,0.55956 2.48305,1.92348 z"
       id="path54"
       style="fill:#474747;stroke-width:0.174863" />
    <path
       class="st23"
       d="m 100.38362,261.05912 v 0 c 0.19235,-0.80437 0.71694,-1.46885 1.46885,-1.81858 l 3.72458,-1.7836 c 0.61202,-0.29726 1.10163,-0.82185 1.34644,-1.45136 l 0.36721,-0.92677 c 0.83934,-2.15081 3.82949,-2.32567 4.91364,-0.27978 l 1.85355,3.49726 c 0.82185,1.55627 -0.035,3.47976 -1.74863,3.89943 l -8.63822,2.11584 c -1.95846,0.47213 -3.742059,-1.29398 -3.28742,-3.25244 z"
       id="path55"
       style="fill:#858585;stroke-width:0.174863" />
    <path
       class="st25"
       d="m 113.23603,159.63875 6.5049,3.19999 c 0.31475,0.15737 0.68196,0.22732 1.03169,0.19235 l 9.87974,-0.8918 c 1.41639,-0.12241 2.22075,-1.69617 1.5213,-2.92021 v 0 c -0.2448,-0.43716 -0.66448,-0.75191 -1.1366,-0.8918 l -14.6535,-4.31911 c -0.73442,-0.20983 -1.53879,0.0175 -2.02841,0.59453 l -1.73114,2.02841 c -0.85682,0.94426 -0.54207,2.43059 0.61202,3.00764 z"
       id="path57"
       style="fill:#d2d2d2;stroke-width:0.174863" />
    <path
       class="st25"
       d="m 130.44252,250.06025 3.32239,-2.20327 c 0.15738,-0.10492 0.29727,-0.26229 0.3847,-0.43715 l 2.30819,-4.93113 c 0.33224,-0.71694 -0.17486,-1.52131 -0.96175,-1.52131 v 0 c -0.27978,0 -0.54207,0.10492 -0.73442,0.29727 l -6.10271,5.75298 c -0.31475,0.29727 -0.41967,0.73442 -0.27978,1.13661 l 0.47213,1.38141 c 0.20984,0.647 1.01421,0.90929 1.59125,0.52459 z"
       id="path58"
       style="fill:#d2d2d2;stroke-width:0.174863" />
    <path
       class="st26"
       d="m 130.54744,117.49684 2.41311,-1.7836 c 1.11912,-0.83934 2.62294,-0.96174 3.86446,-0.31475 l 1.45136,0.75191 c 0.99672,0.5071 1.69617,1.45136 1.906,2.55299 l 1.17158,6.05025 c 0.0525,0.22732 0.10492,0.45464 0.19235,0.66448 l 1.57377,3.9519 c 0.78688,1.95846 -0.24481,4.16173 -2.23824,4.82621 v 0 c -1.55628,0.52459 -3.25245,-0.0525 -4.17922,-1.41639 l -6.99451,-10.29941 c -1.10164,-1.60874 -0.73442,-3.81201 0.83934,-4.98359 z"
       id="path59"
       style="fill:#505050;stroke-width:0.174863" />
    <polygon
       class="st2"
       points="675.4,568.3 520.8,457.6 553,632.8 "
       id="polygon59"
       style="fill:#808080"
       transform="matrix(0.1748627,0,0,0.1748627,20.19159,102.63351)" />
    <path
       class="st37"
       d="m 129.201,116.16788 2.4131,-1.7836 c 1.11912,-0.83934 2.62294,-0.96174 3.86447,-0.31475 l 1.45136,0.75191 c 0.99672,0.5071 1.69617,1.45136 1.906,2.553 l 1.17158,6.05025 c 0.0525,0.22732 0.10492,0.45464 0.19235,0.66447 l 1.57377,3.9519 c 0.78688,1.95846 -0.24481,4.16173 -2.23825,4.82621 v 0 c -1.55628,0.52459 -3.25244,-0.0525 -4.17922,-1.41639 l -6.9945,-10.29941 c -1.10164,-1.62622 -0.73443,-3.81201 0.83934,-4.98359 z"
       id="path72"
       style="fill:#dadada;stroke-width:0.174863" />
  </g>
</svg>
